<svg xmlns="http://www.w3.org/2000/svg" viewBox="0 0 309.99 31.81"><defs><style>.cls-1{fill:none;stroke:#1891c2;stroke-miterlimit:10;}.cls-2{fill:#29aee4;}.cls-3{fill:#1680ab;}.cls-4{fill:#8e8e8e;}</style></defs><g id="Capa_1" data-name="Capa 1"><line class="cls-1" x1="127.25" y1="3.49" x2="127.25" y2="29.83"/><path class="cls-2" d="M33.89,16.3a13.91,13.91,0,0,0-1-4.37A14.37,14.37,0,0,0,29.8,7.3,15.43,15.43,0,0,0,25,4.05a14.72,14.72,0,0,0-5.49-1.23v7.53a6.32,6.32,0,0,1,4.13,2,6.43,6.43,0,0,1,1.24,2.14,8,8,0,0,1,.39,1.79h8.6Z"/><path class="cls-2" d="M15.82,23.36a5.9,5.9,0,0,1-2.06-1.54,6.58,6.58,0,0,1-1.24-2.19A7.56,7.56,0,0,1,12.14,18H3.53a13.66,13.66,0,0,0,1.06,4.42A14.39,14.39,0,0,0,7.67,27a15.21,15.21,0,0,0,4.8,3.24,15.39,15.39,0,0,0,5.41,1.2V23.89A6.3,6.3,0,0,1,15.82,23.36Z"/><path class="cls-2" d="M25.27,18a7.69,7.69,0,0,1-.35,1.58,6.91,6.91,0,0,1-1.19,2.22,5.8,5.8,0,0,1-2,1.59,6.24,6.24,0,0,1-2.16.56v7.52a15.19,15.19,0,0,0,5.27-1.17,16,16,0,0,0,4.85-3.16,14,14,0,0,0,3.16-4.52A13.33,13.33,0,0,0,33.9,18Z"/><path class="cls-3" d="M17.81,1.9C9.32,1.9,2.64,8.82,2.59,16.3H17.81Z"/><path class="cls-3" d="M21.65,17.05a2.9,2.9,0,1,1-2.89-2.89A2.89,2.89,0,0,1,21.65,17.05Z"/><path class="cls-2" d="M57.8,23.26v7.17h-22V2.92h21.6v7.16H44v3H55.47v6.68H44v3.49Z"/><path class="cls-2" d="M58.2,16.43a13.14,13.14,0,0,1,1.06-5.14,14.19,14.19,0,0,1,3-4.53,15,15,0,0,1,4.83-3.23A16.37,16.37,0,0,1,73.64,2.3,15.94,15.94,0,0,1,81.15,4a10.85,10.85,0,0,1,4.72,4.53l-6.52,4.66a4.8,4.8,0,0,0-1.08-1.6,5.48,5.48,0,0,0-1.48-1A6.48,6.48,0,0,0,75.12,10a9.78,9.78,0,0,0-1.63-.15,6.8,6.8,0,0,0-3,.6,5.81,5.81,0,0,0-2,1.58,6.66,6.66,0,0,0-1.21,2.2,8,8,0,0,0-.4,2.43,7.7,7.7,0,0,0,.45,2.61,6.48,6.48,0,0,0,1.33,2.2A6.62,6.62,0,0,0,70.76,23a6.47,6.47,0,0,0,2.83.58,8,8,0,0,0,1.65-.18,7.11,7.11,0,0,0,1.63-.55,4.92,4.92,0,0,0,1.4-1,4.33,4.33,0,0,0,1-1.53l7,4.21a8.27,8.27,0,0,1-2.08,2.83A13.32,13.32,0,0,1,81,29.44a18.21,18.21,0,0,1-3.73,1.27,17.45,17.45,0,0,1-3.88.45,14.54,14.54,0,0,1-6.14-1.27,15.53,15.53,0,0,1-7.92-8.07A13.61,13.61,0,0,1,58.2,16.43Z"/><path class="cls-2" d="M85.92,16.43a13.31,13.31,0,0,1,1-5.14,14.19,14.19,0,0,1,3-4.53,15.09,15.09,0,0,1,4.84-3.23,16.29,16.29,0,0,1,6.51-1.23A16,16,0,0,1,108.87,4a10.77,10.77,0,0,1,4.71,4.53l-6.51,4.66a4.8,4.8,0,0,0-1.08-1.6,5.48,5.48,0,0,0-1.48-1,6.43,6.43,0,0,0-1.68-.52,9.68,9.68,0,0,0-1.63-.15,6.75,6.75,0,0,0-3,.6,5.85,5.85,0,0,0-2.06,1.58,6.82,6.82,0,0,0-1.2,2.2,7.69,7.69,0,0,0,.05,5,6.33,6.33,0,0,0,1.33,2.2,6.47,6.47,0,0,0,4.93,2.11,8,8,0,0,0,1.66-.18,7.11,7.11,0,0,0,1.63-.55,5.21,5.21,0,0,0,1.4-1,4.47,4.47,0,0,0,1-1.53l7,4.21a8.15,8.15,0,0,1-2.08,2.83,13.26,13.26,0,0,1-3.13,2.06A18.21,18.21,0,0,1,105,30.71a17.54,17.54,0,0,1-3.89.45A14.57,14.57,0,0,1,95,29.89a15.56,15.56,0,0,1-7.91-8.07A13.61,13.61,0,0,1,85.92,16.43Z"/><path class="cls-4" d="M143.48,11.2a2.31,2.31,0,0,1-.9,1.94,3.91,3.91,0,0,1-2.44.69,6.1,6.1,0,0,1-2.58-.43V12.35a6.86,6.86,0,0,0,1.26.38,6.37,6.37,0,0,0,1.36.15,2.7,2.7,0,0,0,1.64-.42,1.36,1.36,0,0,0,.56-1.15,1.46,1.46,0,0,0-.2-.8,1.83,1.83,0,0,0-.66-.58,9,9,0,0,0-1.4-.6,4.4,4.4,0,0,1-1.87-1.11,2.44,2.44,0,0,1-.56-1.68,2.1,2.1,0,0,1,.81-1.73,3.41,3.41,0,0,1,2.16-.64,6.39,6.39,0,0,1,2.58.51l-.34,1a5.89,5.89,0,0,0-2.26-.48,2.2,2.2,0,0,0-1.36.37,1.24,1.24,0,0,0-.49,1,1.55,1.55,0,0,0,.18.8,1.8,1.8,0,0,0,.61.58,8,8,0,0,0,1.31.57,5.27,5.27,0,0,1,2,1.13A2.25,2.25,0,0,1,143.48,11.2Z"/><path class="cls-4" d="M148.22,13.83a3.2,3.2,0,0,1-2.46-.95,3.64,3.64,0,0,1-.91-2.64,4.09,4.09,0,0,1,.84-2.71,2.79,2.79,0,0,1,2.26-1A2.64,2.64,0,0,1,150,7.4a3.32,3.32,0,0,1,.77,2.3v.67H146a2.78,2.78,0,0,0,.63,1.89,2.14,2.14,0,0,0,1.67.64,5.78,5.78,0,0,0,2.25-.47v1a5.78,5.78,0,0,1-1.07.35A6.12,6.12,0,0,1,148.22,13.83Zm-.29-6.41a1.75,1.75,0,0,0-1.35.56,2.49,2.49,0,0,0-.6,1.53h3.69A2.35,2.35,0,0,0,149.22,8,1.58,1.58,0,0,0,147.93,7.42Z"/><path class="cls-4" d="M155.45,13.83a3,3,0,0,1-2.37-.94,3.86,3.86,0,0,1-.84-2.66,4.07,4.07,0,0,1,.85-2.74,3.08,3.08,0,0,1,2.43-1,4.43,4.43,0,0,1,1,.11,3.81,3.81,0,0,1,.8.25L157,7.8a5.77,5.77,0,0,0-.77-.23,3.09,3.09,0,0,0-.74-.1c-1.44,0-2.15.92-2.15,2.74a3.29,3.29,0,0,0,.52,2,1.83,1.83,0,0,0,1.55.69,4.6,4.6,0,0,0,1.81-.38v1A3.89,3.89,0,0,1,155.45,13.83Z"/><path class="cls-4" d="M162.12,6.53a3.63,3.63,0,0,1,.84.08l-.15,1a3.26,3.26,0,0,0-.77-.1,1.87,1.87,0,0,0-1.46.69A2.52,2.52,0,0,0,160,9.92v3.79H158.9v-7h.89l.12,1.3H160a3.16,3.16,0,0,1,.94-1.06A2.14,2.14,0,0,1,162.12,6.53Z"/><path class="cls-4" d="M167.26,13.83a3.24,3.24,0,0,1-2.47-.95,3.67,3.67,0,0,1-.9-2.64,4.09,4.09,0,0,1,.84-2.71,2.78,2.78,0,0,1,2.25-1,2.67,2.67,0,0,1,2.1.87,3.36,3.36,0,0,1,.77,2.3v.67H165a2.89,2.89,0,0,0,.63,1.89,2.18,2.18,0,0,0,1.68.64,5.78,5.78,0,0,0,2.25-.47v1a6,6,0,0,1-1.07.35A6.12,6.12,0,0,1,167.26,13.83ZM167,7.42a1.72,1.72,0,0,0-1.35.56,2.49,2.49,0,0,0-.6,1.53h3.69A2.35,2.35,0,0,0,168.26,8,1.58,1.58,0,0,0,167,7.42Z"/><path class="cls-4" d="M174,13a3.12,3.12,0,0,0,.54,0l.42-.09v.82a1.79,1.79,0,0,1-.51.14,3.41,3.41,0,0,1-.61.05c-1.36,0-2-.71-2-2.15V7.49h-1V7l1-.44L172.2,5h.62V6.66h2v.83h-2v4.14a1.44,1.44,0,0,0,.3,1A1,1,0,0,0,174,13Z"/><path class="cls-4" d="M180.66,13.71l-.22-1h-.05a3,3,0,0,1-1,.9,3.14,3.14,0,0,1-1.31.23,2.33,2.33,0,0,1-1.64-.54,2,2,0,0,1-.6-1.53c0-1.43,1.14-2.17,3.42-2.24l1.19,0V9a1.76,1.76,0,0,0-.35-1.22,1.45,1.45,0,0,0-1.14-.4,4.66,4.66,0,0,0-2,.54l-.33-.81a5.1,5.1,0,0,1,1.15-.45A4.8,4.8,0,0,1,179,6.54a2.71,2.71,0,0,1,1.87.56,2.35,2.35,0,0,1,.61,1.79v4.82ZM178.24,13a2.19,2.19,0,0,0,1.57-.54,2,2,0,0,0,.57-1.53v-.64l-1.07,0a4,4,0,0,0-1.84.4,1.2,1.2,0,0,0-.56,1.09,1.1,1.1,0,0,0,.35.88A1.47,1.47,0,0,0,178.24,13Z"/><path class="cls-4" d="M186.86,6.53a3.67,3.67,0,0,1,.85.08l-.15,1a3.32,3.32,0,0,0-.77-.1,1.89,1.89,0,0,0-1.47.69,2.57,2.57,0,0,0-.61,1.73v3.79h-1.06v-7h.88l.12,1.3h0a3.08,3.08,0,0,1,1-1.06A2.1,2.1,0,0,1,186.86,6.53Z"/><path class="cls-4" d="M189,5.56a10.41,10.41,0,0,0,.66-1q.36-.57.57-1h1.3v.14a9.19,9.19,0,0,1-.85,1,8.16,8.16,0,0,1-1,.94H189Zm1.11,8.15H189v-7h1.07Z"/><path class="cls-4" d="M196.69,13.71l-.21-1h0a3.2,3.2,0,0,1-1.05.9,3.2,3.2,0,0,1-1.31.23,2.38,2.38,0,0,1-1.65-.54,2,2,0,0,1-.59-1.53c0-1.43,1.14-2.17,3.41-2.24l1.2,0V9a1.76,1.76,0,0,0-.36-1.22,1.45,1.45,0,0,0-1.14-.4A4.62,4.62,0,0,0,193,8l-.33-.81a5.21,5.21,0,0,1,1.14-.45A4.82,4.82,0,0,1,195,6.54a2.67,2.67,0,0,1,1.86.56,2.31,2.31,0,0,1,.61,1.79v4.82ZM194.28,13a2.18,2.18,0,0,0,1.56-.54,2,2,0,0,0,.57-1.53v-.64l-1.06,0a4,4,0,0,0-1.84.4,1.18,1.18,0,0,0-.56,1.09,1.07,1.07,0,0,0,.35.88A1.45,1.45,0,0,0,194.28,13Z"/><path class="cls-4" d="M207.9,12.76h-.06a2.49,2.49,0,0,1-2.21,1.07,2.61,2.61,0,0,1-2.15-.94,4.18,4.18,0,0,1-.77-2.69,4.28,4.28,0,0,1,.77-2.71,2.61,2.61,0,0,1,2.15-1,2.57,2.57,0,0,1,2.2,1h.08l0-.51,0-.49V3.7h1.07v10H208Zm-2.13.18a2,2,0,0,0,1.58-.59,3,3,0,0,0,.49-1.92V10.2a3.49,3.49,0,0,0-.5-2.14,1.9,1.9,0,0,0-1.59-.64,1.64,1.64,0,0,0-1.43.73,3.59,3.59,0,0,0-.5,2.06,3.49,3.49,0,0,0,.49,2A1.69,1.69,0,0,0,205.77,12.94Z"/><path class="cls-4" d="M214.15,13.83a3.2,3.2,0,0,1-2.46-.95,3.64,3.64,0,0,1-.91-2.64,4.09,4.09,0,0,1,.84-2.71,2.79,2.79,0,0,1,2.26-1A2.64,2.64,0,0,1,216,7.4a3.32,3.32,0,0,1,.77,2.3v.67h-4.85a2.78,2.78,0,0,0,.63,1.89,2.14,2.14,0,0,0,1.67.64,5.78,5.78,0,0,0,2.25-.47v1a5.78,5.78,0,0,1-1.07.35A6.12,6.12,0,0,1,214.15,13.83Zm-.29-6.41a1.75,1.75,0,0,0-1.35.56,2.49,2.49,0,0,0-.6,1.53h3.69A2.35,2.35,0,0,0,215.15,8,1.58,1.58,0,0,0,213.86,7.42Z"/><path class="cls-4" d="M229.29,13.71h-1.1V9.28h-4.95v4.43h-1.09V4.3h1.09v4h4.95v-4h1.1Z"/><path class="cls-4" d="M236,13.71l-.21-1h-.05a3.12,3.12,0,0,1-1.06.9,3.14,3.14,0,0,1-1.31.23,2.37,2.37,0,0,1-1.64-.54,2,2,0,0,1-.59-1.53c0-1.43,1.13-2.17,3.41-2.24l1.2,0V9a1.76,1.76,0,0,0-.36-1.22,1.45,1.45,0,0,0-1.14-.4,4.7,4.7,0,0,0-2,.54L232,7.15a5,5,0,0,1,1.14-.45,4.8,4.8,0,0,1,1.24-.16,2.7,2.7,0,0,1,1.87.56,2.31,2.31,0,0,1,.61,1.79v4.82ZM233.63,13a2.18,2.18,0,0,0,1.56-.54,2,2,0,0,0,.57-1.53v-.64l-1.07,0a3.9,3.9,0,0,0-1.83.4,1.19,1.19,0,0,0-.57,1.09,1.08,1.08,0,0,0,.36.88A1.45,1.45,0,0,0,233.63,13Z"/><path class="cls-4" d="M241.85,13.83a3,3,0,0,1-2.37-.94,3.86,3.86,0,0,1-.84-2.66,4,4,0,0,1,.85-2.74,3.08,3.08,0,0,1,2.43-1,4.34,4.34,0,0,1,1,.11,3.63,3.63,0,0,1,.8.25l-.33.91a5,5,0,0,0-.77-.23,3,3,0,0,0-.74-.1c-1.43,0-2.15.92-2.15,2.74a3.28,3.28,0,0,0,.53,2,1.82,1.82,0,0,0,1.55.69,4.63,4.63,0,0,0,1.81-.38v1A3.92,3.92,0,0,1,241.85,13.83Z"/><path class="cls-4" d="M245.21,4.75a.7.7,0,0,1,.18-.54.64.64,0,0,1,.45-.17.64.64,0,0,1,.44.17.7.7,0,0,1,.19.54.66.66,0,0,1-.19.53.6.6,0,0,1-.44.18.61.61,0,0,1-.45-.18A.69.69,0,0,1,245.21,4.75Zm1.16,9H245.3v-7h1.07Z"/><path class="cls-4" d="M251.61,13.83a3.24,3.24,0,0,1-2.47-.95,3.67,3.67,0,0,1-.9-2.64,4.09,4.09,0,0,1,.84-2.71,2.78,2.78,0,0,1,2.25-1,2.67,2.67,0,0,1,2.1.87,3.36,3.36,0,0,1,.77,2.3v.67h-4.86a2.89,2.89,0,0,0,.63,1.89,2.18,2.18,0,0,0,1.68.64,5.78,5.78,0,0,0,2.25-.47v1a6,6,0,0,1-1.07.35A6.12,6.12,0,0,1,251.61,13.83Zm-.29-6.41A1.72,1.72,0,0,0,250,8a2.49,2.49,0,0,0-.6,1.53h3.69A2.35,2.35,0,0,0,252.61,8,1.58,1.58,0,0,0,251.32,7.42Z"/><path class="cls-4" d="M260.85,13.71V9.15a1.84,1.84,0,0,0-.4-1.29,1.61,1.61,0,0,0-1.23-.43,2,2,0,0,0-1.62.6,3.05,3.05,0,0,0-.51,2v3.7H256v-7h.87l.17,1h.05a2.2,2.2,0,0,1,.92-.81,3,3,0,0,1,1.32-.28,2.68,2.68,0,0,1,1.92.61,2.62,2.62,0,0,1,.64,2v4.6Z"/><path class="cls-4" d="M268.9,12.76h0a2.51,2.51,0,0,1-2.22,1.07,2.62,2.62,0,0,1-2.15-.94,4.18,4.18,0,0,1-.77-2.69,4.22,4.22,0,0,1,.78-2.71,2.86,2.86,0,0,1,4.34.08h.09l-.05-.51,0-.49V3.7h1.06v10h-.86Zm-2.13.18a1.94,1.94,0,0,0,1.58-.59,3,3,0,0,0,.5-1.92V10.2a3.56,3.56,0,0,0-.5-2.14,1.92,1.92,0,0,0-1.59-.64,1.65,1.65,0,0,0-1.44.73,3.67,3.67,0,0,0-.5,2.06,3.41,3.41,0,0,0,.5,2A1.67,1.67,0,0,0,266.77,12.94Z"/><path class="cls-4" d="M276.51,13.71l-.21-1h-.05a3,3,0,0,1-1.05.9,3.17,3.17,0,0,1-1.31.23,2.33,2.33,0,0,1-1.64-.54,2,2,0,0,1-.6-1.53c0-1.43,1.14-2.17,3.42-2.24l1.19,0V9a1.81,1.81,0,0,0-.35-1.22,1.46,1.46,0,0,0-1.15-.4,4.66,4.66,0,0,0-2,.54l-.33-.81a5.21,5.21,0,0,1,1.14-.45,4.87,4.87,0,0,1,1.25-.16,2.71,2.71,0,0,1,1.87.56,2.34,2.34,0,0,1,.6,1.79v4.82ZM274.1,13a2.19,2.19,0,0,0,1.57-.54,2,2,0,0,0,.57-1.53v-.64l-1.07,0a4,4,0,0,0-1.84.4,1.2,1.2,0,0,0-.56,1.09,1.1,1.1,0,0,0,.35.88A1.45,1.45,0,0,0,274.1,13Z"/><path class="cls-4" d="M143.62,26.9a2.44,2.44,0,0,1-.92,2,4,4,0,0,1-2.55.73,6,6,0,0,1-2.66-.57V27.22a10.49,10.49,0,0,0,1.61.6,4.56,4.56,0,0,0,1.2.17,1.69,1.69,0,0,0,1-.25.82.82,0,0,0,.35-.74.81.81,0,0,0-.15-.49,1.72,1.72,0,0,0-.46-.42c-.2-.13-.6-.34-1.21-.64a6.15,6.15,0,0,1-1.3-.77,3,3,0,0,1-.69-.87,2.51,2.51,0,0,1-.25-1.16,2.43,2.43,0,0,1,.84-2,3.52,3.52,0,0,1,2.34-.72,5.32,5.32,0,0,1,1.4.18,8.94,8.94,0,0,1,1.39.49l-.64,1.55a8.51,8.51,0,0,0-1.25-.43,3.58,3.58,0,0,0-1-.13,1.26,1.26,0,0,0-.87.27.86.86,0,0,0-.3.69.84.84,0,0,0,.12.45,1.18,1.18,0,0,0,.39.38,9.21,9.21,0,0,0,1.26.66,5.1,5.1,0,0,1,1.81,1.27A2.5,2.5,0,0,1,143.62,26.9Z"/><path class="cls-4" d="M150.26,29.51l-.26-.92h-.11a2,2,0,0,1-.89.78,3.11,3.11,0,0,1-1.32.27,2.53,2.53,0,0,1-1.91-.68,2.71,2.71,0,0,1-.64-1.95V22.32h2v4.2a2,2,0,0,0,.28,1.17,1,1,0,0,0,.88.39,1.35,1.35,0,0,0,1.19-.55,3.5,3.5,0,0,0,.36-1.83V22.32h2v7.19Z"/><path class="cls-4" d="M157.82,22.19a2.34,2.34,0,0,1,2,1,4.55,4.55,0,0,1,.72,2.72,4.51,4.51,0,0,1-.74,2.76,2.42,2.42,0,0,1-2,1,2.39,2.39,0,0,1-2-.92h-.14l-.33.79h-1.5v-10h2v2.33c0,.3,0,.77-.08,1.42h.08A2.24,2.24,0,0,1,157.82,22.19Zm-.63,1.57a1.24,1.24,0,0,0-1.06.44,2.54,2.54,0,0,0-.34,1.48v.21a3,3,0,0,0,.34,1.66,1.23,1.23,0,0,0,1.09.5,1.09,1.09,0,0,0,1-.55,3,3,0,0,0,.36-1.62,2.83,2.83,0,0,0-.36-1.59A1.12,1.12,0,0,0,157.19,23.76Z"/><path class="cls-4" d="M167.18,27.38a2,2,0,0,1-.77,1.68,3.77,3.77,0,0,1-2.3.58,6.46,6.46,0,0,1-1.34-.11,4.75,4.75,0,0,1-1-.31V27.6A6.32,6.32,0,0,0,163,28a4.79,4.79,0,0,0,1.2.18c.71,0,1.07-.21,1.07-.62a.54.54,0,0,0-.14-.38,2.88,2.88,0,0,0-.49-.33q-.35-.18-.93-.42a5.34,5.34,0,0,1-1.21-.65,1.8,1.8,0,0,1-.57-.67,2.24,2.24,0,0,1-.18-.95,1.7,1.7,0,0,1,.75-1.48,3.58,3.58,0,0,1,2.1-.52,6.08,6.08,0,0,1,2.53.56l-.59,1.42a10.05,10.05,0,0,0-1-.38,3.15,3.15,0,0,0-1-.15c-.58,0-.87.16-.87.47a.55.55,0,0,0,.28.46,8.57,8.57,0,0,0,1.23.57,5.62,5.62,0,0,1,1.23.64,1.87,1.87,0,0,1,.58.68A2.12,2.12,0,0,1,167.18,27.38Z"/><path class="cls-4" d="M172,29.64a3.69,3.69,0,0,1-2.71-1,3.63,3.63,0,0,1-1-2.71,4,4,0,0,1,.9-2.8,3.26,3.26,0,0,1,2.5-1,3.17,3.17,0,0,1,2.37.86,3.27,3.27,0,0,1,.85,2.4v1h-4.63a1.87,1.87,0,0,0,.49,1.3,1.75,1.75,0,0,0,1.3.47,5.4,5.4,0,0,0,1.23-.13,5.94,5.94,0,0,0,1.21-.44v1.52a5,5,0,0,1-1.1.39A7.27,7.27,0,0,1,172,29.64Zm-.27-6.06a1.22,1.22,0,0,0-1,.4,1.84,1.84,0,0,0-.41,1.12h2.76a1.66,1.66,0,0,0-.38-1.12A1.28,1.28,0,0,0,171.69,23.58Z"/><path class="cls-4" d="M179.41,29.64q-3.36,0-3.36-3.68a4,4,0,0,1,.92-2.81,3.42,3.42,0,0,1,2.61-1,5,5,0,0,1,2.24.49l-.58,1.51c-.31-.12-.59-.22-.86-.3a2.77,2.77,0,0,0-.8-.12c-1,0-1.53.72-1.53,2.17s.51,2.11,1.53,2.11a3.51,3.51,0,0,0,1-.15,4.1,4.1,0,0,0,1-.47v1.68a3,3,0,0,1-1,.41A5.17,5.17,0,0,1,179.41,29.64Z"/><path class="cls-4" d="M187.27,22.19a4.08,4.08,0,0,1,.67,0l-.15,1.84a2.4,2.4,0,0,0-.58-.06,2.07,2.07,0,0,0-1.46.48,1.74,1.74,0,0,0-.53,1.35v3.66h-2V22.32h1.49l.29,1.21h.09a2.74,2.74,0,0,1,.91-1A2.19,2.19,0,0,1,187.27,22.19Z"/><path class="cls-4" d="M192.5,29.64a3.73,3.73,0,0,1-2.72-1,3.62,3.62,0,0,1-1-2.71,4,4,0,0,1,.9-2.8,3.25,3.25,0,0,1,2.5-1,3.19,3.19,0,0,1,2.37.86,3.27,3.27,0,0,1,.85,2.4v1h-4.64a1.87,1.87,0,0,0,.5,1.3,1.75,1.75,0,0,0,1.3.47,5.46,5.46,0,0,0,1.23-.13,6.4,6.4,0,0,0,1.21-.44v1.52a5.13,5.13,0,0,1-1.1.39A7.27,7.27,0,0,1,192.5,29.64Zm-.28-6.06a1.25,1.25,0,0,0-1,.4,1.83,1.83,0,0,0-.4,1.12h2.75a1.61,1.61,0,0,0-.38-1.12A1.25,1.25,0,0,0,192.22,23.58Z"/><path class="cls-4" d="M200.05,28.08a4.27,4.27,0,0,0,1.24-.23v1.46a4.39,4.39,0,0,1-1.8.33,2.2,2.2,0,0,1-1.71-.59,2.61,2.61,0,0,1-.54-1.79V23.79h-.94V23l1.08-.65.57-1.52h1.25v1.53h2v1.47h-2v3.47a.79.79,0,0,0,.23.62A1,1,0,0,0,200.05,28.08Z"/><path class="cls-4" d="M207.31,29.51l-.38-1h-.05a2.86,2.86,0,0,1-1,.87,3.33,3.33,0,0,1-1.37.24,2.23,2.23,0,0,1-1.63-.59,2.32,2.32,0,0,1-.59-1.69,1.87,1.87,0,0,1,.8-1.68,4.56,4.56,0,0,1,2.41-.61l1.25,0v-.32a1,1,0,0,0-1.12-1.09,5,5,0,0,0-2,.52l-.65-1.33a5.84,5.84,0,0,1,2.75-.65,3.45,3.45,0,0,1,2.22.63,2.35,2.35,0,0,1,.77,1.92v4.79Zm-.58-3.33-.76,0a2.44,2.44,0,0,0-1.27.3,1,1,0,0,0-.42.87c0,.55.32.83.95.83a1.46,1.46,0,0,0,1.09-.4,1.33,1.33,0,0,0,.41-1Z"/><path class="cls-4" d="M214.71,22.19a3.86,3.86,0,0,1,.66,0l-.14,1.84a2.4,2.4,0,0,0-.58-.06,2.1,2.1,0,0,0-1.47.48,1.73,1.73,0,0,0-.52,1.35v3.66h-2V22.32h1.48l.29,1.21h.1a2.62,2.62,0,0,1,.9-1A2.22,2.22,0,0,1,214.71,22.19Z"/><path class="cls-4" d="M216.58,21.53v-.17a18.64,18.64,0,0,0,1.52-1.94h2.2v.14c-.23.22-.61.55-1.15,1s-1,.77-1.26,1Zm2.06,8h-2V22.32h2Z"/><path class="cls-4" d="M225.27,29.51l-.38-1h0a2.86,2.86,0,0,1-1,.87,3.33,3.33,0,0,1-1.37.24,2.23,2.23,0,0,1-1.63-.59,2.28,2.28,0,0,1-.6-1.69,1.89,1.89,0,0,1,.8-1.68,4.6,4.6,0,0,1,2.42-.61l1.25,0v-.32a1,1,0,0,0-1.12-1.09,5.06,5.06,0,0,0-2,.52l-.65-1.33a5.91,5.91,0,0,1,2.76-.65,3.4,3.4,0,0,1,2.21.63,2.32,2.32,0,0,1,.78,1.92v4.79Zm-.58-3.33-.76,0a2.42,2.42,0,0,0-1.27.3,1,1,0,0,0-.42.87c0,.55.31.83.95.83a1.48,1.48,0,0,0,1.09-.4,1.37,1.37,0,0,0,.41-1Z"/><path class="cls-4" d="M234.35,29.64a2.36,2.36,0,0,1-2-1,4.56,4.56,0,0,1-.72-2.73,4.55,4.55,0,0,1,.74-2.76,2.4,2.4,0,0,1,2-1,2.36,2.36,0,0,1,2.07,1h.06a7.82,7.82,0,0,1-.15-1.43V19.5h2v10h-1.5l-.38-.93h-.09A2.23,2.23,0,0,1,234.35,29.64Zm.69-1.56a1.33,1.33,0,0,0,1.1-.44,2.49,2.49,0,0,0,.39-1.49v-.21a2.94,2.94,0,0,0-.36-1.66,1.33,1.33,0,0,0-1.16-.5,1.15,1.15,0,0,0-1,.56,3,3,0,0,0-.36,1.62,2.88,2.88,0,0,0,.36,1.59A1.22,1.22,0,0,0,235,28.08Z"/><path class="cls-4" d="M243.67,29.64a3.72,3.72,0,0,1-2.72-1A3.62,3.62,0,0,1,240,26a4,4,0,0,1,.9-2.8,3.69,3.69,0,0,1,4.87-.12,3.27,3.27,0,0,1,.85,2.4v1H242a1.87,1.87,0,0,0,.5,1.3,1.75,1.75,0,0,0,1.3.47,5.46,5.46,0,0,0,1.23-.13,6.4,6.4,0,0,0,1.21-.44v1.52a5.33,5.33,0,0,1-1.1.39A7.27,7.27,0,0,1,243.67,29.64Zm-.28-6.06a1.23,1.23,0,0,0-1,.4,1.83,1.83,0,0,0-.4,1.12h2.75a1.61,1.61,0,0,0-.38-1.12A1.25,1.25,0,0,0,243.39,23.58Z"/><path class="cls-4" d="M253.73,29.51h-2v-9.4h5.39v1.63h-3.43v2.43h3.19v1.62h-3.19Z"/><path class="cls-4" d="M258.76,20.46c0-.64.36-1,1.07-1s1.07.32,1.07,1a.92.92,0,0,1-.27.71,1.11,1.11,0,0,1-.8.26C259.12,21.43,258.76,21.11,258.76,20.46Zm2.05,9.05h-2V22.32h2Z"/><path class="cls-4" d="M269.5,29.51h-2v-4.2a2,2,0,0,0-.28-1.17,1,1,0,0,0-.88-.38,1.32,1.32,0,0,0-1.19.55,3.43,3.43,0,0,0-.36,1.82v3.38h-2V22.32h1.49l.27.92h.11a2.09,2.09,0,0,1,.9-.79,3.19,3.19,0,0,1,1.31-.26,2.5,2.5,0,0,1,1.9.67,2.71,2.71,0,0,1,.65,2Z"/><path class="cls-4" d="M276.09,29.51l-.38-1h0a2.86,2.86,0,0,1-1,.87,3.33,3.33,0,0,1-1.37.24,2.23,2.23,0,0,1-1.63-.59,2.28,2.28,0,0,1-.59-1.69,1.87,1.87,0,0,1,.8-1.68,4.56,4.56,0,0,1,2.41-.61l1.25,0v-.32a1,1,0,0,0-1.12-1.09,5,5,0,0,0-2,.52l-.65-1.33a5.84,5.84,0,0,1,2.75-.65,3.45,3.45,0,0,1,2.22.63,2.35,2.35,0,0,1,.77,1.92v4.79Zm-.58-3.33-.76,0a2.44,2.44,0,0,0-1.27.3,1,1,0,0,0-.42.87c0,.55.32.83.95.83a1.46,1.46,0,0,0,1.09-.4,1.37,1.37,0,0,0,.41-1Z"/><path class="cls-4" d="M286.12,29.51h-2v-4.2a2.06,2.06,0,0,0-.27-1.17,1,1,0,0,0-.88-.38,1.31,1.31,0,0,0-1.19.55,3.32,3.32,0,0,0-.37,1.82v3.38h-2V22.32H281l.26.92h.11a2.09,2.09,0,0,1,.9-.79,3.22,3.22,0,0,1,1.31-.26,2.54,2.54,0,0,1,1.91.67,2.76,2.76,0,0,1,.65,2Z"/><path class="cls-4" d="M293.14,29.51h-5.68V28.35l3.33-4.53h-3.13v-1.5H293v1.27L289.78,28h3.36Z"/><path class="cls-4" d="M299.13,29.51l-.38-1h-.05a2.86,2.86,0,0,1-1,.87,3.33,3.33,0,0,1-1.37.24,2.23,2.23,0,0,1-1.63-.59,2.28,2.28,0,0,1-.6-1.69,1.89,1.89,0,0,1,.8-1.68,4.6,4.6,0,0,1,2.42-.61l1.25,0v-.32a1,1,0,0,0-1.12-1.09,5.06,5.06,0,0,0-2,.52l-.65-1.33a5.91,5.91,0,0,1,2.76-.65,3.4,3.4,0,0,1,2.21.63,2.32,2.32,0,0,1,.78,1.92v4.79Zm-.58-3.33-.76,0a2.42,2.42,0,0,0-1.27.3,1,1,0,0,0-.42.87c0,.55.31.83.95.83a1.48,1.48,0,0,0,1.09-.4,1.37,1.37,0,0,0,.41-1Z"/><path class="cls-4" d="M307.53,27.38a2,2,0,0,1-.77,1.68,3.77,3.77,0,0,1-2.3.58,6.42,6.42,0,0,1-1.33-.11,4.84,4.84,0,0,1-1-.31V27.6a6.82,6.82,0,0,0,1.23.43,4.86,4.86,0,0,0,1.21.18c.71,0,1.07-.21,1.07-.62a.5.5,0,0,0-.15-.38,2.37,2.37,0,0,0-.48-.33c-.24-.12-.54-.26-.93-.42a5.69,5.69,0,0,1-1.22-.65,1.8,1.8,0,0,1-.57-.67,2.41,2.41,0,0,1-.17-.95,1.71,1.71,0,0,1,.74-1.48,3.64,3.64,0,0,1,2.11-.52,6.12,6.12,0,0,1,2.53.56l-.6,1.42a9.22,9.22,0,0,0-1-.38,3.11,3.11,0,0,0-1-.15c-.57,0-.86.16-.86.47a.55.55,0,0,0,.28.46,7.78,7.78,0,0,0,1.22.57,5.74,5.74,0,0,1,1.24.64,1.87,1.87,0,0,1,.58.68A2.13,2.13,0,0,1,307.53,27.38Z"/></g></svg>